<?xml version="1.0" encoding="UTF-8"?>
<svg width="512" height="512" viewBox="0 0 512 512" xmlns="http://www.w3.org/2000/svg">
  <!-- 深藍色背景 -->
  <rect width="512" height="512" fill="#1a1a2e"/>
  
  <!-- 星空效果 -->
  <circle cx="100" cy="80" r="2" fill="#ffd700" opacity="0.8"/>
  <circle cx="200" cy="120" r="1.5" fill="#ffd700" opacity="0.6"/>
  <circle cx="350" cy="90" r="2" fill="#ffd700" opacity="0.9"/>
  <circle cx="450" cy="150" r="1" fill="#ffd700" opacity="0.7"/>
  <circle cx="80" cy="200" r="1.5" fill="#ffd700" opacity="0.8"/>
  <circle cx="400" cy="250" r="2" fill="#ffd700" opacity="0.6"/>
  <circle cx="150" cy="300" r="1" fill="#ffd700" opacity="0.9"/>
  <circle cx="480" cy="350" r="1.5" fill="#ffd700" opacity="0.7"/>
  <circle cx="50" cy="400" r="2" fill="#ffd700" opacity="0.8"/>
  <circle cx="300" cy="450" r="1" fill="#ffd700" opacity="0.6"/>
  
  <!-- 魔法陣外圈 -->
  <circle cx="256" cy="256" r="180" fill="none" stroke="#ffd700" stroke-width="3" opacity="0.8"/>
  <circle cx="256" cy="256" r="160" fill="none" stroke="#ffd700" stroke-width="2" opacity="0.6"/>
  
  <!-- 魔法陣內部符號 -->
  <g transform="translate(256,256)">
    <!-- 中央五角星 -->
    <path d="M0,-60 L17.6,-18.5 L56.4,-18.5 L28.2,3 L35.3,41.5 L0,20 L-35.3,41.5 L-28.2,3 L-56.4,-18.5 L-17.6,-18.5 Z" 
          fill="#ffd700" opacity="0.9"/>
    
    <!-- 內圈符文 -->
    <g stroke="#ffd700" stroke-width="2" fill="none" opacity="0.7">
      <circle r="90"/>
      <path d="M-63.6,-63.6 L63.6,63.6 M63.6,-63.6 L-63.6,63.6"/>
      <path d="M0,-90 L0,90 M-90,0 L90,0"/>
    </g>
    
    <!-- 外圈符文 -->
    <g stroke="#ffd700" stroke-width="1.5" fill="none" opacity="0.5">
      <path d="M-127,-127 L-90,-90 M127,-127 L90,-90 M127,127 L90,90 M-127,127 L-90,90"/>
    </g>
  </g>
  
  <!-- 書本圖標 -->
  <g transform="translate(256,320)">
    <rect x="-40" y="-20" width="80" height="40" rx="4" fill="#4a5568" opacity="0.9"/>
    <rect x="-35" y="-15" width="70" height="30" rx="2" fill="#e2e8f0"/>
    <line x1="-25" y1="-8" x2="25" y2="-8" stroke="#4a5568" stroke-width="1"/>
    <line x1="-25" y1="-2" x2="25" y2="-2" stroke="#4a5568" stroke-width="1"/>
    <line x1="-25" y1="4" x2="25" y2="4" stroke="#4a5568" stroke-width="1"/>
    <line x1="-25" y1="10" x2="15" y2="10" stroke="#4a5568" stroke-width="1"/>
  </g>
  
  <!-- 羽毛筆 -->
  <g transform="translate(320,200) rotate(45)">
    <path d="M0,0 Q-5,-20 -2,-40 Q2,-45 8,-40 Q5,-20 0,0" fill="#8b4513"/>
    <path d="M0,0 L-15,-5 Q-20,-8 -15,-12 L0,-5" fill="#ffd700" opacity="0.8"/>
    <path d="M0,0 L15,-5 Q20,-8 15,-12 L0,-5" fill="#ffd700" opacity="0.8"/>
  </g>
</svg>